<?xml version="1.0" standalone="no"?>
<!DOCTYPE svg PUBLIC "-//W3C//DTD SVG 1.1//EN" "http://www.w3.org/Graphics/SVG/1.1/DTD/svg11.dtd" >
<svg xmlns="http://www.w3.org/2000/svg" xmlns:xlink="http://www.w3.org/1999/xlink" version="1.1">
<metadata></metadata>
<defs>
<font id="fira_monobold" horiz-adv-x="1228" >
<font-face units-per-em="2048" ascent="1608" descent="-440" />
<missing-glyph horiz-adv-x="500" />
<glyph />
<glyph />
<glyph unicode="&#xd;" />
<glyph unicode=" " />
<glyph unicode="!" d="M428 152q0 78 54.5 132t131.5 54q39 0 73 -14.5t59.5 -40t40 -59.5t14.5 -72q0 -39 -14.5 -73t-40 -59.5t-59.5 -40t-73 -14.5q-78 0 -132 54.5t-54 132.5zM440 1419h348l-40 -895h-265z" />
<glyph unicode="&#x22;" d="M262 1520h309l-39 -574h-231zM655 1520h312l-39 -574h-234z" />
<glyph unicode="#" d="M72 295v215h149l53 403h-127v217h156l37 289h272l-39 -289h193l39 289h270l-39 -289h123v-217h-151l-52 -403h127v-215h-155l-39 -295h-271l39 295h-192l-39 -295h-270l37 295h-121zM492 510h192l53 403h-192z" />
<glyph unicode="$" d="M84 162l158 182q70 -59 142.5 -95t164.5 -42v422q-223 74 -318.5 173t-95.5 245q0 168 111.5 274t302.5 127v305h166v-303q127 -10 227 -54t176 -108l-157 -166q-57 47 -120 71t-126 28v-355q104 -35 184 -74.5t134 -92t83 -121t29 -160.5q0 -86 -29 -162t-83 -134.5 t-134 -97t-184 -51.5v-305h-166v299q-154 10 -271.5 66.5t-193.5 128.5zM428 1085q0 -25 4 -45t16.5 -38.5t36 -36t64.5 -35.5v289q-61 -10 -91 -48.5t-30 -85.5zM715 213q125 29 125 166q0 59 -24.5 102t-100.5 82v-350z" />
<glyph unicode="%" d="M6 1110q0 158 78 252t215 94t214 -91t77 -255q0 -166 -77 -256t-214 -90t-215 90t-78 256zM164 -8l702 1474l174 -71l-704 -1475zM217 1110q0 -92 17.5 -139t64.5 -47q51 0 64.5 46t13.5 140q0 98 -13.5 141t-64.5 43t-66.5 -46t-15.5 -138zM637 328q0 158 77 251t216 93 q137 0 214 -90t77 -254q0 -166 -77 -256t-214 -90q-139 0 -216 90t-77 256zM850 328q0 -92 16.5 -139.5t63.5 -47.5q51 0 65.5 46.5t14.5 140.5q0 98 -14.5 141t-65.5 43t-65.5 -46t-14.5 -138z" />
<glyph unicode="&#x26;" d="M76 406q0 170 83 263t228 128v8q-242 66 -242 307q0 74 32 136.5t89.5 108.5t135 71.5t169.5 25.5q127 0 221.5 -36t178.5 -126l-176 -151q-47 47 -86 68.5t-99 21.5q-72 0 -110.5 -43t-38.5 -117q0 -80 51 -132t137 -52h535v-209h-133v-535q-33 -35 -77 -66.5 t-102.5 -56t-131.5 -40t-165 -15.5q-121 0 -214 34t-156.5 92.5t-96 139t-32.5 175.5zM395 430q0 -102 50.5 -164.5t148.5 -62.5q51 0 90 15t64 40v420h-117q-61 0 -105.5 -20.5t-73 -55.5t-43 -80t-14.5 -92z" />
<glyph unicode="'" d="M459 1520h309l-39 -574h-231z" />
<glyph unicode="(" d="M287 717q0 184 35.5 330.5t97 269.5t142.5 229.5t171 210.5l211 -141q-80 -104 -140.5 -205.5t-102.5 -208t-62.5 -225.5t-20.5 -260t20.5 -260t62.5 -225.5t102.5 -208t140.5 -205.5l-211 -142q-90 104 -171 211t-142.5 230t-97 269t-35.5 331z" />
<glyph unicode=")" d="M285 -182q80 104 140 205.5t102 208t62.5 225.5t20.5 260t-20.5 260t-62.5 225.5t-102 207.5t-140 206l211 141q90 -104 171 -210.5t142 -229.5t97 -269.5t36 -330.5t-36 -330.5t-97 -269.5t-142 -229.5t-171 -211.5z" />
<glyph unicode="*" d="M178 1102l82 258l258 -125l-45 287h281l-45 -289l258 127l84 -258l-283 -49l207 -203l-225 -164l-138 254l-131 -256l-225 164l203 207z" />
<glyph unicode="+" d="M168 514v252h309v319h273v-319h311v-252h-311v-319h-273v319h-309z" />
<glyph unicode="," d="M385 -418l104 436q-47 29 -72.5 77.5t-25.5 107.5q0 94 63.5 157.5t159.5 63.5q98 0 162 -63.5t64 -159.5q0 -61 -22.5 -123t-67.5 -162l-148 -334h-217z" />
<glyph unicode="-" d="M221 514v254h787v-254h-787z" />
<glyph unicode="." d="M385 195q0 47 18.5 89t49 72.5t72.5 49t89 18.5t89 -18.5t73 -49t49.5 -72.5t18.5 -89t-18.5 -89.5t-49.5 -73t-72.5 -49t-89.5 -18.5q-47 0 -89 18.5t-72.5 49t-49 73t-18.5 89.5z" />
<glyph unicode="/" d="M57 -113l861 1786l253 -117l-858 -1785z" />
<glyph unicode="0" d="M100 713q0 350 129 546.5t385 196.5q254 0 384 -196.5t130 -546.5q0 -176 -32.5 -314.5t-97 -234.5t-161 -147.5t-223.5 -51.5q-129 0 -225 51.5t-160.5 147.5t-96.5 234.5t-32 314.5zM418 713q0 -145 12 -242.5t37 -158t61.5 -86t85.5 -25.5t86 26.5t61.5 87t36 158.5 t11.5 240q0 141 -12.5 237.5t-37 156.5t-60 86t-85.5 26q-49 0 -85.5 -28t-61.5 -88.5t-37 -156.5t-12 -233zM479 707q0 55 38 94t95 39q59 0 97.5 -39t38.5 -94q0 -57 -38 -96.5t-98 -39.5q-57 0 -95 39.5t-38 96.5z" />
<glyph unicode="1" d="M117 1141l458 278h291v-1171h264v-248h-925v248h342v850l-285 -172z" />
<glyph unicode="2" d="M100 1212q86 113 205 178.5t285 65.5q121 0 212 -32.5t152.5 -88t92 -130t30.5 -156.5q0 -80 -28.5 -160t-95 -174t-176 -208t-271.5 -257h604l-35 -250h-946v231q174 168 292 289t189.5 211t102 157.5t30.5 131.5q0 86 -51 135t-137 49q-74 0 -134.5 -33.5 t-119.5 -109.5z" />
<glyph unicode="3" d="M51 178l185 172q61 -72 135.5 -103.5t158.5 -31.5q104 0 171 53.5t67 153.5q0 113 -62.5 162t-177.5 49h-129l37 225h92q94 0 153.5 46t59.5 138q0 78 -56 124t-148 46q-86 0 -155 -32.5t-128 -89.5l-168 174q98 94 219 143t268 49q115 0 205 -28.5t152.5 -79t95.5 -117 t33 -139.5q0 -135 -77 -217t-194 -117v-8q63 -10 121 -34t101 -66t68.5 -104.5t25.5 -146.5q0 -90 -38 -168.5t-109.5 -138t-173 -93.5t-230.5 -34q-160 0 -286 55.5t-216 157.5z" />
<glyph unicode="4" d="M90 297v217l393 942l279 -102l-334 -811h246l37 340h282v-340h142v-246h-142v-297h-319v297h-584z" />
<glyph unicode="5" d="M84 178l188 172q51 -66 118 -100.5t140 -34.5q113 0 180.5 67.5t67.5 178.5q0 131 -57 186t-143 55q-39 0 -82 -10t-90 -37h-222v764h869l-37 -233h-518v-303q53 25 107 35t102 10q86 0 160.5 -32t130 -91.5t87 -145.5t31.5 -192q0 -109 -40 -201t-113.5 -158.5 t-177 -104.5t-228.5 -38q-156 0 -275.5 57.5t-197.5 155.5z" />
<glyph unicode="6" d="M100 641q0 180 42 329.5t122 257t194.5 168t260.5 60.5q94 0 172 -25.5t137 -66.5l-125 -199q-41 29 -87 43.5t-91 14.5q-115 0 -192.5 -101.5t-90.5 -296.5q66 66 144 96.5t153 30.5q82 0 155 -31.5t127 -91t85 -147.5t31 -201q0 -106 -35 -200.5t-101.5 -164 t-159.5 -110.5t-210 -41q-141 0 -241.5 54.5t-165 146.5t-94.5 215t-30 260zM442 621q4 -213 44 -317.5t149 -104.5q45 0 77.5 20.5t54 56t32 84t10.5 103.5q0 145 -41 204.5t-115 59.5q-55 0 -110.5 -27.5t-100.5 -78.5z" />
<glyph unicode="7" d="M137 1174v245h955v-221l-549 -1231l-312 96l529 1111h-623z" />
<glyph unicode="8" d="M86 377q0 123 69.5 212t190.5 142q-111 70 -158 158t-47 186q0 86 36 157t99.5 120t150.5 76.5t189 27.5q104 0 191.5 -24.5t149 -71.5t96 -115.5t34.5 -154.5t-52 -169t-167 -149q143 -72 209 -169t66 -218q0 -82 -34 -157.5t-100.5 -134t-167 -93.5t-233.5 -35 q-131 0 -228 34t-162.5 90t-98.5 131t-33 157zM414 397q0 -88 50 -143t152 -55q104 0 151.5 56t47.5 132q0 51 -15.5 89t-47 66.5t-83 52t-122.5 48.5q-61 -41 -97 -101.5t-36 -144.5zM453 1071q0 -80 49 -129t155 -90q70 51 94.5 105.5t24.5 113.5q0 72 -40 117t-120 45 q-78 0 -120.5 -42t-42.5 -120z" />
<glyph unicode="9" d="M88 965q0 106 40 197t108.5 155.5t164 101.5t205.5 37q129 0 227.5 -42t165 -116.5t99 -176t32.5 -220.5q0 -209 -51 -367.5t-158.5 -275.5t-271.5 -195.5t-387 -123.5l-67 229q256 66 400 174.5t187 280.5l-6 4q-49 -59 -118.5 -94t-168.5 -35q-84 0 -156.5 32.5 t-126.5 93t-86 146.5t-32 195zM418 975q0 -70 13 -117t37 -76.5t55.5 -42t68.5 -12.5q61 0 110.5 33t90.5 92q0 92 -7.5 160.5t-29 116t-58 71t-94.5 23.5q-86 0 -136 -62.5t-50 -185.5z" />
<glyph unicode=":" d="M397 182q0 43 17.5 82t46 68.5t68.5 46t85 16.5t84 -16.5t69 -46t46 -68.5t16 -82q0 -45 -16 -84t-46 -68.5t-69 -47t-84 -17.5t-85 17.5t-68.5 47t-46 68.5t-17.5 84zM397 889q0 43 17.5 83t46 69.5t68.5 47t85 17.5t84 -17.5t69 -47t46 -69.5t16 -83t-16 -83t-46 -68.5 t-69 -46t-84 -17.5t-85 17.5t-68.5 46t-46 68.5t-17.5 83z" />
<glyph unicode=";" d="M391 -406l101 420q-45 29 -70 75.5t-25 103.5q0 45 16.5 83.5t46 67.5t68.5 45.5t86 16.5q92 0 153.5 -61.5t61.5 -154.5q0 -57 -22.5 -117.5t-63.5 -156.5l-141 -322h-211zM397 889q0 43 17.5 83t46 69.5t68.5 47t85 17.5t84 -17.5t69 -47t46 -69.5t16 -83t-16 -83 t-46 -68.5t-69 -46t-84 -17.5t-85 17.5t-68.5 46t-46 68.5t-17.5 83z" />
<glyph unicode="&#x3c;" d="M141 526v232l803 497l143 -225l-663 -387l663 -379l-147 -233z" />
<glyph unicode="=" d="M147 295v254h934v-254h-934zM147 725v256h934v-256h-934z" />
<glyph unicode="&#x3e;" d="M141 254l664 389l-664 377l146 235l800 -495v-234l-798 -495z" />
<glyph unicode="?" d="M113 1235q88 104 209.5 162.5t283.5 58.5q117 0 206 -27.5t148.5 -75.5t89 -110.5t29.5 -130.5q0 -84 -28.5 -139t-70.5 -96t-91 -73t-91 -64.5t-71 -73.5t-29 -101v-41h-299v51q0 88 25 148.5t62.5 102.5t81.5 72t82 57.5t62.5 57t24.5 70.5q0 55 -45 85t-117 30 q-70 0 -135 -30.5t-121 -94.5zM367 152q0 39 14 72.5t39.5 59t59.5 40t73 14.5q78 0 132 -54.5t54 -131.5q0 -78 -54 -132.5t-132 -54.5q-39 0 -73 14.5t-59.5 40t-39.5 59.5t-14 73z" />
<glyph unicode="@" d="M-4 1219q141 123 282.5 180t309.5 57q182 0 305 -60.5t196.5 -172t105.5 -268t32 -349.5q0 -195 -13.5 -343t-50.5 -249.5t-99.5 -154t-160.5 -52.5q-59 0 -102 23t-73 60.5t-47 89t-24 110.5h-8q-35 -78 -105.5 -134t-181.5 -56q-92 0 -154.5 35.5t-102 98t-57 148.5 t-17.5 185q0 125 25.5 227t79.5 174t136 111t195 39q82 0 171 -22t175 -69v-614q0 -113 19.5 -158t60.5 -45q29 0 46 31t25.5 99.5t10.5 178t2 269.5q0 162 -17.5 285.5t-63.5 208.5t-124 129t-201 44q-111 0 -219 -42t-227 -146zM324 367q0 -141 20.5 -202t77.5 -61 q33 0 54.5 13.5t33.5 35t17 46t10 49.5v446q-18 10 -35.5 14.5t-40.5 4.5q-41 0 -66.5 -17.5t-42 -57.5t-22.5 -106.5t-6 -164.5z" />
<glyph unicode="A" d="M-25 0l435 1419h411l434 -1419h-364l-74 305h-411l-74 -305h-357zM459 551h303l-146 600h-10z" />
<glyph unicode="B" d="M113 0v1419h452q111 0 209 -17.5t173 -59.5t119 -111.5t44 -173.5q0 -63 -21.5 -114.5t-57.5 -89.5t-79 -61.5t-86 -33.5v-8q51 -10 105.5 -33t99.5 -62t72.5 -97t27.5 -142q0 -123 -48 -203t-129 -128t-186.5 -66.5t-221.5 -18.5h-473zM453 248h120q49 0 94.5 7t79 26.5 t54 55.5t20.5 93q0 111 -63.5 154t-169.5 43h-135v-379zM453 854h110q109 0 157 39t48 129q0 84 -52 121t-163 37h-100v-326z" />
<glyph unicode="C" d="M68 713q0 178 50 316t139 233.5t211 144.5t263 49q154 0 261.5 -43t197.5 -115l-166 -196q-59 47 -122.5 74.5t-145.5 27.5q-74 0 -134.5 -27.5t-105.5 -88t-69.5 -153.5t-24.5 -222q0 -127 23.5 -219.5t66.5 -151.5t102.5 -87t133.5 -28q104 0 175.5 36t131.5 83 l153 -196q-78 -76 -195.5 -130.5t-287.5 -54.5q-147 0 -268 48t-207 142.5t-134 234.5t-48 323z" />
<glyph unicode="D" d="M104 0v1419h361q137 0 265 -27.5t227.5 -104.5t160 -214t60.5 -356q0 -217 -57.5 -356.5t-154 -219.5t-220 -110.5t-257.5 -30.5h-385zM444 246h70q70 0 127 21.5t98 74.5t63.5 144.5t22.5 230.5q0 141 -23.5 230t-65.5 139.5t-98 69t-124 18.5h-70v-928z" />
<glyph unicode="E" d="M178 0v1419h932l-35 -241h-557v-338h492v-238h-492v-358h592v-244h-932z" />
<glyph unicode="F" d="M199 0v1419h936l-35 -241h-559v-373h495v-244h-495v-561h-342z" />
<glyph unicode="G" d="M45 713q0 180 52.5 319t141.5 233.5t208.5 142.5t257.5 48q156 0 263 -49t191 -127l-178 -184q-66 57 -124 84.5t-134 27.5q-72 0 -132.5 -27.5t-103.5 -88t-67.5 -154.5t-24.5 -227q0 -139 16.5 -234.5t50.5 -154t86 -84t122 -25.5q47 0 92 11.5t82 31.5v322h-176 l-33 237h530v-706q-109 -66 -232.5 -105t-266.5 -39q-305 0 -463 189.5t-158 558.5z" />
<glyph unicode="H" d="M104 0v1419h340v-549h340v549h340v-1419h-340v606h-340v-606h-340z" />
<glyph unicode="I" d="M152 0v250h292v921h-292v248h925v-248h-293v-921h293v-250h-925z" />
<glyph unicode="J" d="M168 -109q129 39 218 84t145.5 100.5t81 125t24.5 159.5v811h-461v248h801v-1044q0 -152 -49 -265.5t-143.5 -199.5t-229.5 -149.5t-307 -110.5z" />
<glyph unicode="K" d="M119 0v1419h340v-1419h-340zM469 758l383 661h356l-397 -637l436 -782h-393z" />
<glyph unicode="L" d="M188 0v1419h340v-1151h615l-35 -268h-920z" />
<glyph unicode="M" d="M35 0l80 1419h348l149 -891h9l145 891h348l80 -1419h-297l-16 604q-2 35 -2 66v59q0 55 1 102.5t4 90.5t7 86t8 92h-8l-150 -858h-256l-161 858h-9q4 -47 7.5 -93t6.5 -96.5t5 -105.5t2 -121v-86l-10 -598h-291z" />
<glyph unicode="N" d="M104 0v1419h424l351 -1104h8q-16 78 -33.5 225.5t-17.5 340.5v538h288v-1419h-411l-363 1102h-8q6 -33 15.5 -91.5t17.5 -133t13 -163.5t5 -184v-530h-289z" />
<glyph unicode="O" d="M45 711q0 168 37 306t108.5 235.5t178 150.5t245.5 53t246 -51t178.5 -148.5t108.5 -235.5t37 -310q0 -170 -37 -307.5t-108.5 -234.5t-178 -150.5t-246.5 -53.5q-139 0 -245.5 51.5t-178 148.5t-108.5 235.5t-37 310.5zM393 711q0 -262 52.5 -380t168.5 -118 q123 0 172.5 119t49.5 379q0 262 -51.5 379.5t-170.5 117.5t-170 -117.5t-51 -379.5z" />
<glyph unicode="P" d="M125 0v1419h448q291 0 450 -115t159 -348q0 -125 -41 -216t-115 -151.5t-178.5 -89t-229.5 -28.5h-153v-471h-340zM465 717h125q117 0 179 57t62 182q0 221 -253 222h-113v-461z" />
<glyph unicode="Q" d="M66 711q0 168 33.5 306t103 235.5t174 150.5t244.5 53q139 0 243.5 -51t174 -148.5t104.5 -235.5t35 -310q0 -104 -15.5 -198.5t-48.5 -174.5t-86 -143.5t-129 -104.5l2 -8q74 -14 135.5 -38t110.5 -62.5t87 -98t66 -143.5l-276 -94q-35 80 -70.5 140t-85 102t-116 62.5 t-158.5 20.5q-133 0 -232.5 51.5t-165 146.5t-98 232.5t-32.5 309.5zM418 711q0 -260 43 -379t160 -119q121 0 161.5 120t40.5 378q0 129 -9 223t-32.5 154.5t-62.5 89t-98 28.5q-119 0 -161 -118.5t-42 -376.5z" />
<glyph unicode="R" d="M117 0v1419h448q293 0 439.5 -104.5t146.5 -327.5q0 -76 -21.5 -137.5t-60.5 -109.5t-90 -82.5t-111 -59.5l371 -598h-381l-305 541h-96v-541h-340zM457 774h123q109 0 165 50t56 163q0 102 -59.5 148.5t-176.5 46.5h-108v-408z" />
<glyph unicode="S" d="M23 170l172 190q78 -70 173 -106.5t210 -36.5q104 0 168.5 45t64.5 127q0 39 -12.5 67.5t-42 52t-78.5 45t-123 44.5q-123 39 -208 83t-139 97t-79 119t-25 145q0 98 42 175t116 130.5t171 81t208 27.5q162 0 288 -48t218 -136l-160 -185q-72 59 -153.5 89t-165.5 30 q-96 0 -153.5 -34.5t-57.5 -102.5q0 -35 13 -59.5t45 -46t86 -42t136 -47.5q100 -33 180 -71.5t135.5 -93t84 -125t28.5 -168.5q0 -100 -40 -183t-113.5 -142.5t-180 -92.5t-241.5 -33q-195 0 -337 59.5t-230 145.5z" />
<glyph unicode="T" d="M45 1159v260h1151l-35 -260h-379v-1159h-340v1159h-397z" />
<glyph unicode="U" d="M84 475v944h342v-815q0 -96 7 -169t26.5 -121t56.5 -72.5t98 -24.5t98.5 24.5t56.5 72.5t26.5 121t7.5 169v815h342v-944q0 -109 -33 -202t-99.5 -161.5t-166 -107.5t-232.5 -39t-233 37t-165.5 104.5t-98.5 160.5t-33 208z" />
<glyph unicode="V" d="M-2 1419h360l256 -1136h11l260 1136h348l-408 -1419h-422z" />
<glyph unicode="W" d="M-6 1419h317l39 -1110h8l115 946h291l102 -944h8l66 1108h295l-168 -1419h-352l-97 995h-8l-106 -995h-359z" />
<glyph unicode="X" d="M2 0l401 754l-370 665h370l203 -442h8l215 442h361l-381 -651l416 -768h-371l-244 526h-8l-237 -526h-363z" />
<glyph unicode="Y" d="M-18 1419h372l262 -598h9l264 598h358l-463 -887v-532h-340v530z" />
<glyph unicode="Z" d="M84 0v254l661 903h-598v262h986v-256l-648 -893h660l-35 -270h-1026z" />
<glyph unicode="[" d="M317 -252v1938h594v-244h-284v-1452h284v-242h-594z" />
<glyph unicode="\" d="M57 1556l256 117l858 -1786l-256 -116z" />
<glyph unicode="]" d="M317 -8h285v1450h-285v244h594v-1938h-594v244z" />
<glyph unicode="^" d="M78 1079l387 650h299l387 -650h-320l-219 406l-211 -406h-323z" />
<glyph unicode="_" d="M57 -125h1114v-256h-1114v256z" />
<glyph unicode="`" d="M322 1518l143 243l442 -286l-98 -166z" />
<glyph unicode="a" d="M68 307q0 178 139 274.5t393 96.5h145v39q0 84 -56 125t-161 41q-49 0 -131 -14.5t-164 -43.5l-75 217q106 41 220 61.5t200 20.5q250 0 366.5 -96t116.5 -289v-424q0 -61 16.5 -88.5t55.5 -42.5l-68 -215q-98 10 -163.5 43t-104.5 101q-63 -76 -161.5 -112t-197.5 -36 q-84 0 -152.5 25.5t-116.5 70.5t-74.5 107.5t-26.5 138.5zM408 330q0 -61 40 -96t103 -35q53 0 109.5 30.5t84.5 87.5v175h-77q-135 0 -197.5 -41t-62.5 -121z" />
<glyph unicode="b" d="M141 0v1520l328 34v-577q51 68 124 107.5t152 39.5q106 0 182.5 -40t125.5 -115.5t72.5 -182t23.5 -239.5q0 -127 -28.5 -233.5t-84 -183.5t-136.5 -121t-187 -44q-82 0 -151.5 34t-117.5 99l-12 -98h-291zM469 301q31 -47 68 -72.5t88 -25.5q86 0 136 77.5t50 262.5 q0 100 -12.5 166.5t-35 104.5t-53 53.5t-69.5 15.5q-53 0 -95 -33t-77 -92v-457z" />
<glyph unicode="c" d="M129 537q0 127 40 234.5t113.5 186t179 122.5t236.5 44q125 0 223.5 -35.5t176.5 -101.5l-142 -196q-55 43 -117.5 62t-119.5 19q-55 0 -100.5 -18t-77 -58t-50 -103.5t-18.5 -155.5q0 -90 19.5 -150.5t52.5 -96.5t78 -51.5t96 -15.5q55 0 114.5 19.5t116.5 62.5 l148 -209q-78 -61 -180.5 -96t-223.5 -35q-133 0 -237.5 41t-177 117t-111.5 181.5t-39 232.5z" />
<glyph unicode="d" d="M80 547q0 125 29.5 231.5t86 183t137.5 119.5t181 43q145 0 246 -100v530l327 -34v-1520h-290l-17 119q-45 -63 -118.5 -108.5t-182.5 -45.5q-102 0 -177 42t-124 118t-73.5 183.5t-24.5 238.5zM418 545q0 -100 12 -166t34.5 -104.5t53.5 -54t68 -15.5q53 0 96 32.5 t78 92.5v467q-35 41 -72 64.5t-86 23.5q-84 0 -134 -79t-50 -261z" />
<glyph unicode="e" d="M92 543q0 121 35 226t102.5 184t166 125t225.5 46q117 0 212 -37.5t162.5 -109.5t104.5 -176.5t37 -235.5q0 -29 -1 -60.5t-6 -55.5h-704q16 -133 86 -189.5t174 -56.5q70 0 136.5 22.5t135.5 75.5l138 -186q-80 -63 -190.5 -106.5t-243.5 -43.5q-141 0 -249 43 t-178.5 120t-106.5 182.5t-36 232.5zM422 645h395q-2 117 -46 188.5t-148 71.5q-86 0 -138.5 -62.5t-62.5 -197.5z" />
<glyph unicode="f" d="M135 793v227h227v156q0 80 29 149.5t86.5 120.5t142 79.5t195.5 28.5q121 0 212 -19t163 -50l-90 -213q-57 23 -115.5 32t-118.5 9q-96 0 -137 -35t-41 -115v-143h334l-37 -227h-297v-793h-326v793h-227z" />
<glyph unicode="g" d="M47 -178q0 47 11.5 87t45.5 81l252 -62q-6 -16 -10 -32.5t-4 -32.5q0 -45 54.5 -72t185.5 -27q80 0 129 8.5t76.5 23t38 32.5t10.5 41q0 25 -10.5 42t-38 30.5t-75.5 22.5t-122 13q-125 8 -207 27t-130 48.5t-67.5 70.5t-19.5 94t31.5 101.5t87.5 84.5q-86 51 -138.5 130 t-52.5 190q0 90 33 164t96.5 127t153.5 81.5t205 28.5q178 0 305 42t223 100l80 -244q-59 -25 -139 -33t-174 -8v-8q92 -39 143 -104.5t51 -170.5q0 -78 -32.5 -144.5t-93 -114.5t-147.5 -75.5t-194 -27.5q-33 0 -66.5 3t-68.5 11q-25 -25 -25 -49q0 -18 8.5 -30.5t39 -21.5 t91 -16.5t162.5 -13.5q207 -14 313.5 -100t106.5 -228q0 -86 -41 -150.5t-115.5 -108.5t-182 -65.5t-242.5 -21.5q-147 0 -249 21.5t-166.5 59.5t-93 88t-28.5 108zM424 729q0 -86 47 -132t125 -46q76 0 119 46t43 136q0 170 -162 170q-78 0 -125 -46t-47 -128z" />
<glyph unicode="h" d="M141 0v1520l328 32v-575q68 72 147.5 109.5t171.5 37.5q145 0 222 -85t77 -240v-799h-327v760q0 68 -27.5 95.5t-75.5 27.5q-51 0 -96 -35t-92 -96v-752h-328z" />
<glyph unicode="i" d="M174 0v223h307v641h-297v223h625v-864h276v-223h-911zM451 1475q0 78 55 131t139 53t139.5 -53.5t55.5 -130.5q0 -78 -55.5 -131.5t-139.5 -53.5t-139 53.5t-55 131.5z" />
<glyph unicode="j" d="M141 -213q86 31 159 65.5t126 79.5t83 104.5t30 139.5v688h-349v223h676v-823q0 -160 -42 -272.5t-121.5 -195.5t-194.5 -142.5t-258 -108.5zM487 1475q0 78 55.5 131t139.5 53t139.5 -53.5t55.5 -130.5q0 -78 -55.5 -131.5t-139.5 -53.5t-139.5 53.5t-55.5 131.5z" />
<glyph unicode="k" d="M141 0v1520l328 34v-1554h-328zM481 596l355 491h342l-355 -481l383 -606h-372z" />
<glyph unicode="l" d="M55 1296v224h647v-1178q0 -66 37 -92.5t103 -26.5q41 0 80 9.5t73 23.5l78 -219q-55 -29 -133 -50.5t-182 -21.5q-201 0 -292 114t-91 306v911h-320z" />
<glyph unicode="m" d="M53 0v1087h240l22 -104q51 70 103.5 105.5t124.5 35.5q61 0 104 -30.5t62 -98.5q49 57 108.5 93t130.5 36q117 0 172.5 -75.5t55.5 -243.5v-805h-281v768q0 55 -10.5 78.5t-40.5 23.5q-27 0 -53.5 -14t-59.5 -55v-801h-229v768q0 55 -9.5 78.5t-39.5 23.5 q-29 0 -56.5 -17t-58.5 -58v-795h-285z" />
<glyph unicode="n" d="M141 0v1087h287l23 -124q142 161 335 161h2q145 0 222 -85t77 -240v-799h-327v707q0 98 -21.5 137t-81.5 39q-51 0 -96 -35t-92 -96v-752h-328z" />
<glyph unicode="o" d="M84 545q0 129 36 236.5t104.5 183t166.5 117.5t223 42t224.5 -41t167 -116.5t103.5 -182t36 -237.5q0 -274 -139.5 -428t-391.5 -154t-391 151.5t-139 428.5zM422 545q0 -180 47 -260t145 -80t145.5 80t47.5 262q0 176 -47.5 256t-145.5 80t-145 -80t-47 -258z" />
<glyph unicode="p" d="M141 -455v1542h291l14 -120q66 86 145 121.5t157 35.5q106 0 181 -40t123 -115.5t70.5 -182t22.5 -239.5q0 -127 -27.5 -233.5t-82 -183.5t-132.5 -121t-176 -44q-160 0 -258 113v-498zM469 301q35 -49 70 -72.5t86 -23.5q86 0 134 77.5t48 260.5q0 100 -11.5 166.5 t-33 104.5t-52 53.5t-69.5 15.5q-53 0 -95 -33t-77 -92v-457z" />
<glyph unicode="q" d="M84 547q0 125 28.5 231.5t85 183t137.5 119.5t185 43q80 0 148.5 -31.5t117.5 -91.5l15 86h286v-1542l-327 35v510q-47 -55 -117 -90t-162 -35q-106 0 -181 41t-123 118t-70.5 183.5t-22.5 239.5zM422 545q0 -100 11 -166t32.5 -103.5t52.5 -53t72 -15.5q53 0 94 31.5 t76 91.5v467q-33 41 -69 64.5t-85 23.5q-88 0 -136 -78t-48 -262z" />
<glyph unicode="r" d="M152 0v223h225v641h-225v223h516l26 -202q37 111 118 173t181 62q41 0 71 -4t64 -14l-53 -318q-31 10 -60.5 13.5t-64.5 3.5q-102 0 -160.5 -72t-84.5 -182v-324h276v-223h-829z" />
<glyph unicode="s" d="M86 125l164 180q63 -49 143 -77.5t176 -28.5q80 0 129.5 24.5t49.5 75.5q0 27 -10.5 46.5t-38 35.5t-78 32.5t-132.5 39.5q-74 20 -136 47.5t-106 67.5t-68.5 94.5t-24.5 125.5q0 72 30.5 133.5t91 106.5t149.5 70.5t206 25.5q139 0 249.5 -35.5t178.5 -87.5l-131 -192 q-59 39 -136 60.5t-155 21.5q-154 0 -154 -82q0 -20 10.5 -35.5t38 -31t77.5 -33t130 -39.5q80 -23 143.5 -49.5t109.5 -65.5t70.5 -94t24.5 -135q0 -90 -41.5 -158t-112.5 -113t-164 -67.5t-198 -22.5q-160 0 -279.5 43t-205.5 117z" />
<glyph unicode="t" d="M127 862v225h227v236l328 39v-275h350l-33 -225h-317v-489q0 -82 37 -116t117 -34q57 0 104 13.5t86 35.5l109 -209q-66 -41 -159 -69.5t-200 -28.5q-215 0 -318.5 109.5t-103.5 298.5v489h-227z" />
<glyph unicode="u" d="M141 303v784h328v-743q0 -78 28.5 -107.5t80.5 -29.5q49 0 98 31.5t84 85.5v763h327v-1087h-286l-15 127q-55 -80 -145 -121t-188 -41q-160 0 -236 91t-76 247z" />
<glyph unicode="v" d="M57 1087h355l204 -823h9l215 823h331l-362 -1087h-385z" />
<glyph unicode="w" d="M6 1087h299l64 -847h8l110 710h275l96 -706h8l68 843h289l-154 -1087h-360l-88 692h-9l-92 -692h-354z" />
<glyph unicode="x" d="M43 0l373 571l-338 516h366l168 -337h9l161 337h348l-319 -503l375 -584h-371l-209 397h-8l-201 -397h-354z" />
<glyph unicode="y" d="M55 1087h346l205 -862h8l224 862h336l-363 -1087q-72 -219 -217 -330.5t-395 -126.5l-37 232q80 10 136 26.5t96 43t67.5 64.5t50.5 91h-113z" />
<glyph unicode="z" d="M145 0v231l539 611h-494v245h875v-229l-533 -610h543l-31 -248h-899z" />
<glyph unicode="{" d="M272 584v266q98 0 145.5 42t47.5 159v288q0 104 23.5 177t80 118t150.5 65.5t237 20.5v-227q-94 0 -139 -25.5t-45 -103.5v-299q0 -86 -17.5 -147.5t-51 -101.5t-86 -62.5t-121.5 -32.5v-8q70 -10 122 -33t85.5 -62.5t51 -100t17.5 -148.5v-299q0 -78 46 -103.5 t138 -25.5v-228q-143 0 -237 20.5t-150.5 65.5t-80 117t-23.5 176v291q0 117 -47 159t-146 42z" />
<glyph unicode="|" d="M461 -215v1874h305v-1874h-305z" />
<glyph unicode="}" d="M272 -59q92 0 138.5 25.5t46.5 103.5v299q0 88 17.5 148.5t51 100t86 62t121.5 33.5v8q-70 10 -122 32.5t-85.5 62.5t-51 101.5t-17.5 147.5v299q0 78 -45 103.5t-140 25.5v227q143 0 237.5 -20.5t151 -65.5t80 -117.5t23.5 -177.5v-288q0 -117 47 -159t145 -42v-266 q-98 0 -145 -42t-47 -159v-291q0 -104 -23.5 -176t-80 -117t-150.5 -65.5t-238 -20.5v228z" />
<glyph unicode="~" d="M43 557q31 63 67.5 122.5t81 104.5t99.5 72t125 27q76 0 131 -32t101 -71t86 -70.5t87 -31.5q59 0 100.5 41t82.5 119l182 -82q-33 -72 -70 -132.5t-82 -103.5t-99 -66.5t-122 -23.5q-74 0 -129 32t-101 70.5t-88 70.5t-87 32q-59 0 -100.5 -43t-82.5 -117z" />
<glyph d="M84 0v254l661 903h-598v262h986v-256l-648 -893h660l-35 -270h-1026zM254 1806l119 133l272 -174l273 174l117 -133l-289 -268h-201z" />
<glyph d="M145 0v231l539 611h-494v245h875v-229l-533 -610h543l-31 -248h-899zM246 1538l119 133l272 -192l273 192l117 -133l-289 -287h-201z" />
<glyph unicode="&#xa0;" />
<glyph unicode="&#xa1;" d="M428 860q0 78 54.5 133.5t131.5 55.5q39 0 73 -15.5t59.5 -41t40 -59.5t14.5 -73q0 -37 -14.5 -70.5t-40 -59t-59.5 -40t-73 -14.5q-78 0 -132 54t-54 130zM440 -420l43 909h262l46 -909h-351z" />
<glyph unicode="&#xa2;" d="M160 537q0 223 107.5 376.5t303.5 194.5v309h234v-305q147 -25 264 -123l-141 -196q-55 45 -104.5 62t-102.5 17q-104 0 -161.5 -76.5t-57.5 -258.5q0 -90 15 -150.5t44 -96.5t69 -51.5t89 -15.5q53 0 98 18.5t105 61.5l147 -209q-119 -94 -264 -119v-305h-236v312 q-199 39 -304 186t-105 369z" />
<glyph unicode="&#xa3;" d="M84 0v236q57 18 92 41.5t51.5 56.5t21.5 76t5 100v143h-150v170h150v205q0 92 30.5 171t90 135.5t146.5 89t202 32.5q274 0 422 -209l-201 -145q-41 59 -87 83.5t-107 24.5q-82 0 -127 -45t-45 -145v-197h372v-170h-372v-153q0 -78 -25 -141.5t-96 -102.5v-8h655 l-39 -248h-989z" />
<glyph unicode="&#xa4;" d="M63 291l164 166q-63 102 -63 243t61 244l-162 164l146 145l166 -166q98 59 241 60q66 0 126.5 -14.5t113.5 -45.5l164 164l145 -145l-159 -162q31 -51 48 -111.5t17 -132.5t-18.5 -134t-48.5 -111l161 -162l-145 -143l-164 159q-51 -29 -112.5 -43t-127.5 -14 q-68 0 -129 14.5t-114 42.5l-164 -164zM416 700q0 -109 50 -168t150 -59q98 0 147.5 59.5t49.5 167.5q0 106 -49 166t-148 60q-100 0 -150 -59.5t-50 -166.5z" />
<glyph unicode="&#xa5;" d="M14 1419h348l256 -581h9l250 581h337l-362 -698h203v-168h-275v-139h275v-170h-275v-244h-327v244h-271v170h271v139h-271v168h197z" />
<glyph unicode="&#xa6;" d="M461 -215v745h305v-745h-305zM461 913v746h305v-746h-305z" />
<glyph unicode="&#xa7;" d="M158 629q0 88 49 152.5t119 107.5q-119 94 -119 233q0 72 31.5 133.5t90 105.5t140.5 69.5t184 25.5q113 0 214.5 -30.5t181.5 -84.5l-115 -190q-125 78 -266 78q-72 0 -109 -26.5t-37 -67.5q0 -25 8.5 -43.5t33 -36t71.5 -36t125 -42.5q74 -23 131 -50.5t97 -65.5 t61.5 -87t21.5 -117q0 -90 -47 -155.5t-115 -108.5q55 -43 85 -100t30 -133q0 -74 -31.5 -134.5t-92 -104.5t-144.5 -68.5t-189 -24.5q-123 0 -222 30.5t-175 84.5l111 200q66 -41 132 -64.5t138 -23.5q76 0 118 27t42 68q0 25 -7.5 43t-33 36.5t-73.5 38t-130 43.5 q-74 23 -131 50.5t-97 64.5t-60.5 87t-20.5 116zM444 676q0 -33 11.5 -56.5t43 -44t88 -42t144.5 -52.5q53 70 53 133q0 31 -11 53.5t-44 43t-89 42t-144 52.5q-29 -33 -40.5 -66.5t-11.5 -62.5z" />
<glyph unicode="&#xa8;" d="M207 1487q0 70 49 117t119 47q72 0 121 -47.5t49 -116.5q0 -72 -49 -120t-121 -48q-70 0 -119 48t-49 120zM682 1487q0 70 49 117t121 47t120 -47.5t48 -116.5q0 -72 -48 -120t-120 -48t-121 48t-49 120z" />
<glyph unicode="&#xa9;" d="M16 868q0 143 41 268.5t118 218.5t188.5 146t252.5 53t253 -53t188 -146t115.5 -218t39.5 -269q0 -143 -39.5 -267t-115.5 -216t-188 -145.5t-253 -53.5q-147 0 -258.5 53.5t-187.5 145.5t-115 216t-39 267zM188 868q0 -111 26 -209t78 -171.5t132.5 -115.5t191.5 -42 t191 42t132 115.5t77.5 172t25.5 208.5q0 113 -24.5 211.5t-76.5 172t-133 116.5t-192 43t-191.5 -43t-132.5 -116.5t-78 -172t-26 -211.5zM289 870q0 94 25.5 169t71.5 127.5t109.5 80t139.5 27.5t132 -23.5t105 -74.5l-100 -125q-29 23 -54.5 34t-60.5 11q-59 0 -97 -51.5 t-38 -174.5t37 -173t98 -50q41 0 74 16.5t60 38.5l92 -135q-47 -45 -107.5 -73.5t-138.5 -28.5q-162 0 -255 104.5t-93 300.5z" />
<glyph unicode="&#xaa;" d="M170 907q0 141 114.5 221t329.5 80h109v25q0 72 -38 95.5t-130 23.5q-39 0 -103.5 -11.5t-136.5 -35.5l-67 186q94 33 185 48t163 15q213 0 303 -80.5t90 -232.5v-334q0 -45 14.5 -66.5t47.5 -31.5l-64 -182q-90 10 -144.5 36.5t-84.5 81.5q-51 -59 -122 -90.5 t-153 -31.5q-72 0 -129 20.5t-98 58t-63.5 90t-22.5 115.5zM205 0v223h848v-223h-848zM465 918q0 -103 100 -103q45 0 87 25.5t71 70.5v127h-64q-106 0 -150 -29.5t-44 -90.5z" />
<glyph unicode="&#xab;" d="M104 483v207l349 451l188 -119l-235 -434l235 -436l-188 -119zM586 483v207l350 451l188 -119l-235 -434l235 -436l-188 -119z" />
<glyph unicode="&#xac;" d="M168 526v252h893v-567h-270v315h-623z" />
<glyph unicode="&#xad;" d="M276 514v254h676v-254h-676z" />
<glyph unicode="&#xae;" d="M49 991q0 119 43 222.5t119 179t180.5 118.5t224.5 43q119 0 222.5 -43t178.5 -118.5t118 -179t43 -222.5t-43 -221t-118 -177t-178.5 -118t-222.5 -43q-121 0 -225 43t-180 118t-119 177t-43 221zM209 991q0 -90 30.5 -166.5t85 -133t129 -88.5t162.5 -32t162 32 t127 88.5t83 133t30 166.5t-30 168t-83 135.5t-126.5 90t-162.5 32.5q-88 0 -162.5 -32.5t-129 -90t-85 -135.5t-30.5 -168zM395 719v581h178q275 0 275 -180q0 -59 -33 -99t-86 -60l158 -242h-170l-127 211h-47v-211h-148zM543 1049h47q106 -1 106 75q0 66 -108 66h-45 v-141z" />
<glyph unicode="&#xaf;" d="M299 1374v228h629v-228h-629z" />
<glyph unicode="&#xb0;" d="M145 1208q0 82 32 146.5t84 108.5t117.5 67.5t133.5 23.5t133.5 -23.5t117.5 -67.5t84 -108.5t32 -146.5t-32 -147.5t-84 -110.5t-117.5 -68.5t-133.5 -23.5t-133.5 23.5t-117.5 68.5t-84 110.5t-32 147.5zM371 1208q0 -72 37.5 -115.5t103.5 -43.5t103.5 44t37.5 115 q0 72 -37.5 115t-103.5 43t-103.5 -43t-37.5 -115z" />
<glyph unicode="&#xb1;" d="M168 0v248h893v-248h-893zM168 555v248h309v321h275v-321h309v-248h-309v-207h-275v207h-309z" />
<glyph unicode="&#xb2;" d="M297 1358q123 135 319 135q143 0 217 -63.5t74 -149.5q0 -43 -13 -80t-47 -71t-90.5 -66.5t-140.5 -69.5h316l-27 -170h-583v152q111 61 178 102t103 71.5t47.5 54t11.5 48.5q0 31 -22 51.5t-60 20.5q-39 0 -71 -15.5t-67 -56.5z" />
<glyph unicode="&#xb3;" d="M285 923l133 113q47 -35 89 -48t91 -13q102 0 102 63q0 31 -21.5 47.5t-78.5 16.5h-108l26 120h82q76 0 76 54q0 53 -78 53q-45 0 -84 -12.5t-90 -44.5l-117 116q131 104 320 105q139 0 212.5 -51.5t73.5 -131.5q0 -59 -33.5 -93t-95.5 -46v-8q76 -10 118 -46t42 -104 q0 -94 -91 -148t-247 -54q-86 0 -173 25.5t-148 86.5z" />
<glyph unicode="&#xb4;" d="M322 1475l442 284l143 -241l-487 -209z" />
<glyph unicode="&#xb5;" d="M135 -453v1540h326v-618q0 -66 3 -114t13 -79.5t32.5 -48t61.5 -16.5q53 0 97.5 30.5t79.5 84.5v761h327v-700q0 -104 7.5 -200.5t17.5 -186.5l-295 -29q-8 29 -15.5 70t-11.5 88q-45 -72 -103.5 -116t-129.5 -44q-53 0 -91 20.5t-71 61.5l-8 -4q33 -59 51 -121.5 t18 -165.5v-180z" />
<glyph unicode="&#xb6;" d="M37 979q0 96 32.5 177t97 139.5t161 91t225.5 32.5h639v-1849l-274 -23v1651h-168v-1628l-275 -23v994q-219 20 -328.5 133.5t-109.5 304.5z" />
<glyph unicode="&#xb7;" d="M385 700q0 47 18.5 89t49 73t72.5 49.5t89 18.5t89 -18.5t73 -49.5t49.5 -72.5t18.5 -89.5q0 -47 -18.5 -89t-49.5 -72.5t-72.5 -49t-89.5 -18.5q-47 0 -89 18.5t-72.5 49t-49 72.5t-18.5 89z" />
<glyph unicode="&#xb8;" d="M338 -475l78 149q31 -16 63.5 -25t67.5 -9q49 0 76.5 14t27.5 49q0 41 -46 54.5t-140 13.5l29 262h180v-131q111 -12 163 -65.5t52 -137.5q0 -104 -83 -171t-224 -67q-74 0 -138.5 19.5t-105.5 44.5z" />
<glyph unicode="&#xb9;" d="M362 1319l304 161h198v-657h-233v430l-160 -82z" />
<glyph unicode="&#xba;" d="M160 1090q0 98 31.5 183t90 147.5t142.5 98t190 35.5t190.5 -34.5t143 -97t90 -147.5t31.5 -185q0 -104 -31.5 -190.5t-90 -148t-142.5 -95t-191 -33.5q-106 0 -191 33.5t-143.5 95t-89 147.5t-30.5 191zM190 0v223h848v-223h-848zM446 1090q0 -143 45.5 -203t122.5 -60 q78 0 123 59.5t45 203.5q0 141 -45 201.5t-123 60.5t-123 -60.5t-45 -201.5z" />
<glyph unicode="&#xbb;" d="M104 152l236 436l-236 434l189 119l348 -451v-207l-348 -450zM586 152l235 436l-235 434l188 119l350 -451v-207l-350 -450z" />
<glyph unicode="&#xbc;" d="M-41 1270l304 161h198v-657h-233v430l-160 -82zM11 514l1095 524l84 -155l-1093 -525zM559 115v135l246 426l197 -66l-201 -342h133l31 162h180v-162h88v-153h-88v-115h-215v115h-371z" />
<glyph unicode="&#xbd;" d="M-41 1270l304 161h198v-657h-233v430l-160 -82zM0 514l1095 524l84 -155l-1093 -525zM637 535q123 135 319 135q143 0 217 -63.5t74 -149.5q0 -43 -13 -80t-47 -71t-90.5 -66.5t-140.5 -69.5h316l-27 -170h-583v152q111 61 178 102t103 71.5t47.5 54t11.5 48.5 q0 31 -22 51.5t-60 20.5q-39 0 -71 -15.5t-67 -56.5z" />
<glyph unicode="&#xbe;" d="M-43 874l133 113q47 -35 89 -48t91 -13q102 0 102 63q0 31 -21.5 47.5t-78.5 16.5h-108l26 120h82q76 0 76 54q0 53 -78 53q-45 0 -84 -12.5t-90 -44.5l-117 116q131 104 320 105q139 0 212.5 -51.5t73.5 -131.5q0 -59 -33.5 -93t-95.5 -46v-8q76 -10 118 -46t42 -104 q0 -94 -91 -148t-247 -54q-86 0 -173 25.5t-148 86.5zM25 514l1095 524l84 -155l-1093 -525zM598 115v135l246 426l197 -66l-201 -342h133l31 162h180v-162h88v-153h-88v-115h-215v115h-371z" />
<glyph unicode="&#xbf;" d="M123 -111q0 82 28.5 138.5t70.5 98.5t91 73.5t91 65.5t71 77t29 107v40h297v-65q0 -88 -24.5 -147.5t-62.5 -101.5t-81 -71.5t-81 -57.5t-62.5 -57.5t-24.5 -70.5q0 -55 45 -85t117 -30q143 0 254 123l209 -159q-88 -104 -210 -163t-286 -59q-117 0 -205 28t-147.5 76 t-89 110.5t-29.5 129.5zM463 860q0 39 14.5 73t40 59.5t59 41t72.5 15.5q78 0 132.5 -55.5t54.5 -133.5q0 -76 -54.5 -130t-132.5 -54q-39 0 -72.5 14.5t-59 40t-40 59t-14.5 70.5z" />
<glyph unicode="&#xc0;" d="M-25 0l435 1419h411l434 -1419h-364l-74 305h-411l-74 -305h-357zM312 1745l143 244l442 -285l-96 -166zM459 551h303l-146 600h-10z" />
<glyph unicode="&#xc1;" d="M-25 0l435 1419h411l434 -1419h-364l-74 305h-411l-74 -305h-357zM322 1706l442 285l143 -244l-487 -207zM459 551h303l-146 600h-10z" />
<glyph unicode="&#xc2;" d="M-25 0l435 1419h411l434 -1419h-364l-74 305h-411l-74 -305h-357zM223 1667l291 266h201l289 -266l-117 -135l-273 172l-272 -172zM459 551h303l-146 600h-10z" />
<glyph unicode="&#xc3;" d="M-25 0l435 1419h411l434 -1419h-364l-74 305h-411l-74 -305h-357zM229 1663q18 49 44 92t60 76t75 52.5t90 19.5t82.5 -13.5t58.5 -30t45.5 -29.5t44.5 -13q37 0 59.5 21.5t47.5 64.5l163 -78q-37 -98 -104.5 -169t-165.5 -71q-49 0 -82 13.5t-58.5 30t-46 29.5t-44.5 13 q-35 0 -57.5 -21.5t-47.5 -64.5zM459 551h303l-146 600h-10z" />
<glyph unicode="&#xc4;" d="M-25 0l435 1419h411l434 -1419h-364l-74 305h-411l-74 -305h-357zM207 1716q0 68 49 116t121 48t121 -48t49 -116q0 -72 -49 -120t-121 -48t-121 48.5t-49 119.5zM459 551h303l-146 600h-10zM682 1716q0 68 49 116t121 48t121 -48t49 -116q0 -72 -49 -120t-121 -48 t-121 48.5t-49 119.5z" />
<glyph unicode="&#xc5;" d="M-25 0l435 1419h411l434 -1419h-364l-74 305h-411l-74 -305h-357zM328 1784q0 53 19.5 102t56 86t90 58.5t118.5 21.5q68 0 121 -21.5t90 -58.5t56.5 -86t19.5 -102q0 -55 -19.5 -104.5t-56.5 -87.5t-90 -59.5t-121 -21.5q-66 0 -119 21.5t-89.5 59.5t-56 87.5 t-19.5 104.5zM459 551h303l-146 600h-10zM520 1784q0 -51 25.5 -77t66.5 -26t67 26t26 77t-26 75.5t-67 24.5t-66.5 -24.5t-25.5 -75.5z" />
<glyph unicode="&#xc6;" d="M-25 0l357 1419h825l-35 -229h-370l67 -356h320v-230h-279l72 -375h303v-229h-545l-49 311h-285l-55 -311h-326zM393 543h213l-98 620h-10z" />
<glyph unicode="&#xc7;" d="M68 713q0 178 50 316t139 233.5t211 144.5t263 49q154 0 261.5 -43t197.5 -115l-166 -196q-59 47 -122.5 74.5t-145.5 27.5q-74 0 -134.5 -27.5t-105.5 -88t-69.5 -153.5t-24.5 -222q0 -127 23.5 -219.5t66.5 -151.5t102.5 -87t133.5 -28q104 0 175.5 36t131.5 83 l153 -196q-72 -68 -175 -120.5t-249 -62.5v-65q109 -12 161 -65.5t52 -137.5q0 -104 -83 -171t-224 -67q-74 0 -137.5 19.5t-103.5 44.5l75 149q31 -16 64 -25t67 -9q49 0 77 14t28 49q0 41 -46 54.5t-141 13.5l23 204q-121 18 -218 76t-166 151t-106.5 221t-37.5 290z" />
<glyph unicode="&#xc8;" d="M178 0v1419h932l-35 -241h-557v-338h492v-238h-492v-358h592v-244h-932zM351 1745l143 244l442 -285l-96 -166z" />
<glyph unicode="&#xc9;" d="M178 0v1419h932l-35 -241h-557v-338h492v-238h-492v-358h592v-244h-932zM369 1704l442 285l143 -244l-487 -207z" />
<glyph unicode="&#xca;" d="M178 0v1419h932l-35 -241h-557v-338h492v-238h-492v-358h592v-244h-932zM258 1667l291 266h201l289 -266l-117 -135l-273 172l-272 -172z" />
<glyph unicode="&#xcb;" d="M178 0v1419h932l-35 -241h-557v-338h492v-238h-492v-358h592v-244h-932zM238 1716q0 68 49 116t121 48t121 -48t49 -116q0 -72 -49 -120t-121 -48t-121 48.5t-49 119.5zM713 1716q0 68 49 116t121 48t121 -48t49 -116q0 -72 -49 -120t-121 -48t-121 48.5t-49 119.5z" />
<glyph unicode="&#xcc;" d="M152 0v250h292v921h-292v248h925v-248h-293v-921h293v-250h-925zM314 1745l143 244l442 -285l-96 -166z" />
<glyph unicode="&#xcd;" d="M152 0v250h292v921h-292v248h925v-248h-293v-921h293v-250h-925zM322 1704l442 285l143 -244l-487 -207z" />
<glyph unicode="&#xce;" d="M152 0v250h292v921h-292v248h925v-248h-293v-921h293v-250h-925zM223 1667l291 266h201l289 -266l-117 -135l-273 172l-272 -172z" />
<glyph unicode="&#xcf;" d="M152 0v250h292v921h-292v248h925v-248h-293v-921h293v-250h-925zM207 1716q0 68 49 116t121 48t121 -48t49 -116q0 -72 -49 -120t-121 -48t-121 48.5t-49 119.5zM682 1716q0 68 49 116t121 48t121 -48t49 -116q0 -72 -49 -120t-121 -48t-121 48.5t-49 119.5z" />
<glyph unicode="&#xd0;" d="M18 621v204h113v594h361q133 0 259 -27.5t223 -104.5t156.5 -214t59.5 -356q0 -217 -56.5 -356.5t-150.5 -219.5t-215 -110.5t-252 -30.5h-385v621h-113zM471 246h70q68 0 123 21.5t93 74.5t59.5 144.5t21.5 230.5q0 141 -22.5 230t-61.5 139.5t-94.5 69t-118.5 18.5h-70 v-349h244v-204h-244v-375z" />
<glyph unicode="&#xd1;" d="M104 0v1419h424l351 -1104h8q-16 78 -33.5 225.5t-17.5 340.5v538h288v-1419h-411l-363 1102h-8q6 -33 15.5 -91.5t17.5 -133t13 -163.5t5 -184v-530h-289zM229 1663q18 49 44 92t60 76t75 52.5t90 19.5t82.5 -13.5t58.5 -30t45.5 -29.5t44.5 -13q37 0 59.5 21.5 t47.5 64.5l163 -78q-37 -98 -104.5 -169t-165.5 -71q-49 0 -82 13.5t-58.5 30t-46 29.5t-44.5 13q-35 0 -57.5 -21.5t-47.5 -64.5z" />
<glyph unicode="&#xd2;" d="M45 711q0 168 37 306t108.5 235.5t178 150.5t245.5 53t246 -51t178.5 -148.5t108.5 -235.5t37 -310q0 -170 -37 -307.5t-108.5 -234.5t-178 -150.5t-246.5 -53.5q-139 0 -245.5 51.5t-178 148.5t-108.5 235.5t-37 310.5zM312 1745l143 244l442 -285l-96 -166zM393 711 q0 -262 52.5 -380t168.5 -118q123 0 172.5 119t49.5 379q0 262 -51.5 379.5t-170.5 117.5t-170 -117.5t-51 -379.5z" />
<glyph unicode="&#xd3;" d="M45 711q0 168 37 306t108.5 235.5t178 150.5t245.5 53t246 -51t178.5 -148.5t108.5 -235.5t37 -310q0 -170 -37 -307.5t-108.5 -234.5t-178 -150.5t-246.5 -53.5q-139 0 -245.5 51.5t-178 148.5t-108.5 235.5t-37 310.5zM334 1704l442 285l143 -244l-487 -207zM393 711 q0 -262 52.5 -380t168.5 -118q123 0 172.5 119t49.5 379q0 262 -51.5 379.5t-170.5 117.5t-170 -117.5t-51 -379.5z" />
<glyph unicode="&#xd4;" d="M45 711q0 168 37 306t108.5 235.5t178 150.5t245.5 53t246 -51t178.5 -148.5t108.5 -235.5t37 -310q0 -170 -37 -307.5t-108.5 -234.5t-178 -150.5t-246.5 -53.5q-139 0 -245.5 51.5t-178 148.5t-108.5 235.5t-37 310.5zM223 1667l291 266h201l289 -266l-117 -135 l-273 172l-272 -172zM393 711q0 -262 52.5 -380t168.5 -118q123 0 172.5 119t49.5 379q0 262 -51.5 379.5t-170.5 117.5t-170 -117.5t-51 -379.5z" />
<glyph unicode="&#xd5;" d="M45 711q0 168 37 306t108.5 235.5t178 150.5t245.5 53t246 -51t178.5 -148.5t108.5 -235.5t37 -310q0 -170 -37 -307.5t-108.5 -234.5t-178 -150.5t-246.5 -53.5q-139 0 -245.5 51.5t-178 148.5t-108.5 235.5t-37 310.5zM229 1663q18 49 44 92t60 76t75 52.5t90 19.5 t82.5 -13.5t58.5 -30t45.5 -29.5t44.5 -13q37 0 59.5 21.5t47.5 64.5l163 -78q-37 -98 -104.5 -169t-165.5 -71q-49 0 -82 13.5t-58.5 30t-46 29.5t-44.5 13q-35 0 -57.5 -21.5t-47.5 -64.5zM393 711q0 -262 52.5 -380t168.5 -118q123 0 172.5 119t49.5 379 q0 262 -51.5 379.5t-170.5 117.5t-170 -117.5t-51 -379.5z" />
<glyph unicode="&#xd6;" d="M45 711q0 168 37 306t108.5 235.5t178 150.5t245.5 53t246 -51t178.5 -148.5t108.5 -235.5t37 -310q0 -170 -37 -307.5t-108.5 -234.5t-178 -150.5t-246.5 -53.5q-139 0 -245.5 51.5t-178 148.5t-108.5 235.5t-37 310.5zM207 1716q0 68 49 116t121 48t121 -48t49 -116 q0 -72 -49 -120t-121 -48t-121 48.5t-49 119.5zM393 711q0 -262 52.5 -380t168.5 -118q123 0 172.5 119t49.5 379q0 262 -51.5 379.5t-170.5 117.5t-170 -117.5t-51 -379.5zM682 1716q0 68 49 116t121 48t121 -48t49 -116q0 -72 -49 -120t-121 -48t-121 48.5t-49 119.5z" />
<glyph unicode="&#xd7;" d="M199 385l239 236l-239 235l180 180l235 -239l236 239l180 -180l-239 -235l239 -236l-180 -180l-236 239l-235 -239z" />
<glyph unicode="&#xd8;" d="M45 711q0 168 37 306t108.5 235.5t178 150.5t245.5 53q29 0 54.5 -3t50.5 -7l76 250l229 -68l-86 -270q123 -92 184.5 -256t61.5 -391q0 -170 -37 -307.5t-108.5 -234.5t-178 -150.5t-246.5 -53.5q-29 0 -53 2t-49 6l-78 -252l-229 68l86 274q-123 90 -184.5 254 t-61.5 394zM381 711q0 -123 11 -211t38 -142l250 848q-27 8 -66 8q-119 0 -176 -116.5t-57 -386.5zM553 211q14 -4 29 -4h32q121 0 177.5 118t56.5 386q0 121 -10.5 204.5t-38.5 137.5z" />
<glyph unicode="&#xd9;" d="M84 475v944h342v-815q0 -96 7 -169t26.5 -121t56.5 -72.5t98 -24.5t98.5 24.5t56.5 72.5t26.5 121t7.5 169v815h342v-944q0 -109 -33 -202t-99.5 -161.5t-166 -107.5t-232.5 -39t-233 37t-165.5 104.5t-98.5 160.5t-33 208zM308 1745l143 244l442 -285l-96 -166z" />
<glyph unicode="&#xda;" d="M84 475v944h342v-815q0 -96 7 -169t26.5 -121t56.5 -72.5t98 -24.5t98.5 24.5t56.5 72.5t26.5 121t7.5 169v815h342v-944q0 -109 -33 -202t-99.5 -161.5t-166 -107.5t-232.5 -39t-233 37t-165.5 104.5t-98.5 160.5t-33 208zM326 1704l442 285l143 -244l-487 -207z" />
<glyph unicode="&#xdb;" d="M84 475v944h342v-815q0 -96 7 -169t26.5 -121t56.5 -72.5t98 -24.5t98.5 24.5t56.5 72.5t26.5 121t7.5 169v815h342v-944q0 -109 -33 -202t-99.5 -161.5t-166 -107.5t-232.5 -39t-233 37t-165.5 104.5t-98.5 160.5t-33 208zM223 1667l291 266h201l289 -266l-117 -135 l-273 172l-272 -172z" />
<glyph unicode="&#xdc;" d="M84 475v944h342v-815q0 -96 7 -169t26.5 -121t56.5 -72.5t98 -24.5t98.5 24.5t56.5 72.5t26.5 121t7.5 169v815h342v-944q0 -109 -33 -202t-99.5 -161.5t-166 -107.5t-232.5 -39t-233 37t-165.5 104.5t-98.5 160.5t-33 208zM207 1716q0 68 49 116t121 48t121 -48t49 -116 q0 -72 -49 -120t-121 -48t-121 48.5t-49 119.5zM682 1716q0 68 49 116t121 48t121 -48t49 -116q0 -72 -49 -120t-121 -48t-121 48.5t-49 119.5z" />
<glyph unicode="&#xdd;" d="M-18 1419h372l262 -598h9l264 598h358l-463 -887v-532h-340v530zM326 1704l442 285l143 -244l-487 -207z" />
<glyph unicode="&#xde;" d="M119 0v1419h342v-229h110q291 0 451 -114.5t160 -350.5q0 -250 -150.5 -368.5t-415.5 -118.5h-155v-238h-342zM461 483h133q111 0 172 53.5t61 186.5q0 119 -62.5 172t-184.5 53h-119v-465z" />
<glyph unicode="&#xdf;" d="M121 0v1087q0 221 119.5 344t355.5 123q100 0 177 -24.5t130 -67.5t81 -101t28 -126q0 -70 -29 -116t-63.5 -83t-63.5 -70.5t-29 -80.5q0 -39 27 -70t65.5 -60.5t86 -64.5t86 -82t65.5 -111.5t27 -152.5q0 -90 -32 -160.5t-87 -119t-131 -74t-164 -25.5 q-78 0 -142.5 17.5t-117.5 46.5l104 219q61 -31 115 -31q117 0 117 125q0 55 -22.5 94t-56.5 71t-73 60.5t-72.5 64.5t-56 82t-22.5 113q0 70 23.5 119t52 92t52 85t23.5 98q0 51 -28.5 77.5t-77.5 26.5q-76 0 -107.5 -55.5t-31.5 -167.5v-1102h-328z" />
<glyph unicode="&#xe0;" d="M68 307q0 178 139 274.5t393 96.5h145v39q0 84 -56 125t-161 41q-49 0 -131 -14.5t-164 -43.5l-75 217q106 41 220 61.5t200 20.5q250 0 366.5 -96t116.5 -289v-424q0 -61 16.5 -88.5t55.5 -42.5l-68 -215q-98 10 -163.5 43t-104.5 101q-63 -76 -161.5 -112t-197.5 -36 q-84 0 -152.5 25.5t-116.5 70.5t-74.5 107.5t-26.5 138.5zM320 1462l143 244l442 -295l-98 -166zM408 330q0 -61 40 -96t103 -35q53 0 109.5 30.5t84.5 87.5v175h-77q-135 0 -197.5 -41t-62.5 -121z" />
<glyph unicode="&#xe1;" d="M68 307q0 178 139 274.5t393 96.5h145v39q0 84 -56 125t-161 41q-49 0 -131 -14.5t-164 -43.5l-75 217q106 41 220 61.5t200 20.5q250 0 366.5 -96t116.5 -289v-424q0 -61 16.5 -88.5t55.5 -42.5l-68 -215q-98 10 -163.5 43t-104.5 101q-63 -76 -161.5 -112t-197.5 -36 q-84 0 -152.5 25.5t-116.5 70.5t-74.5 107.5t-26.5 138.5zM330 1411l440 295l145 -244l-487 -217zM408 330q0 -61 40 -96t103 -35q53 0 109.5 30.5t84.5 87.5v175h-77q-135 0 -197.5 -41t-62.5 -121z" />
<glyph unicode="&#xe2;" d="M68 307q0 178 139 274.5t393 96.5h145v39q0 84 -56 125t-161 41q-49 0 -131 -14.5t-164 -43.5l-75 217q106 41 220 61.5t200 20.5q250 0 366.5 -96t116.5 -289v-424q0 -61 16.5 -88.5t55.5 -42.5l-68 -215q-98 10 -163.5 43t-104.5 101q-63 -76 -161.5 -112t-197.5 -36 q-84 0 -152.5 25.5t-116.5 70.5t-74.5 107.5t-26.5 138.5zM227 1384l291 287h201l289 -287l-117 -133l-273 193l-272 -193zM408 330q0 -61 40 -96t103 -35q53 0 109.5 30.5t84.5 87.5v175h-77q-135 0 -197.5 -41t-62.5 -121z" />
<glyph unicode="&#xe3;" d="M68 307q0 178 139 274.5t393 96.5h145v39q0 84 -56 125t-161 41q-49 0 -131 -14.5t-164 -43.5l-75 217q106 41 220 61.5t200 20.5q250 0 366.5 -96t116.5 -289v-424q0 -61 16.5 -88.5t55.5 -42.5l-68 -215q-98 10 -163.5 43t-104.5 101q-63 -76 -161.5 -112t-197.5 -36 q-84 0 -152.5 25.5t-116.5 70.5t-74.5 107.5t-26.5 138.5zM233 1376q18 49 44 92t60 77t75 53.5t90 19.5t82.5 -14.5t58.5 -31t45.5 -30.5t44.5 -14q37 0 59.5 22.5t47.5 65.5l163 -78q-18 -49 -44.5 -93t-60.5 -78t-75 -53.5t-90 -19.5t-82 14.5t-58.5 32t-46 31.5 t-44.5 14q-35 0 -57.5 -22.5t-47.5 -65.5zM408 330q0 -61 40 -96t103 -35q53 0 109.5 30.5t84.5 87.5v175h-77q-135 0 -197.5 -41t-62.5 -121z" />
<glyph unicode="&#xe4;" d="M68 307q0 178 139 274.5t393 96.5h145v39q0 84 -56 125t-161 41q-49 0 -131 -14.5t-164 -43.5l-75 217q106 41 220 61.5t200 20.5q250 0 366.5 -96t116.5 -289v-424q0 -61 16.5 -88.5t55.5 -42.5l-68 -215q-98 10 -163.5 43t-104.5 101q-63 -76 -161.5 -112t-197.5 -36 q-84 0 -152.5 25.5t-116.5 70.5t-74.5 107.5t-26.5 138.5zM213 1470q0 70 49 117t121 47t121 -47t49 -117q0 -72 -49 -118.5t-121 -46.5t-121 47t-49 118zM408 330q0 -61 40 -96t103 -35q53 0 109.5 30.5t84.5 87.5v175h-77q-135 0 -197.5 -41t-62.5 -121zM688 1470 q0 70 50 117t120 47q72 0 121 -47t49 -117q0 -72 -49 -118.5t-121 -46.5q-70 0 -120 47t-50 118z" />
<glyph unicode="&#xe5;" d="M68 307q0 178 139 274.5t393 96.5h145v39q0 84 -56 125t-161 41q-49 0 -131 -14.5t-164 -43.5l-75 217q106 41 220 61.5t200 20.5q250 0 366.5 -96t116.5 -289v-424q0 -61 16.5 -88.5t55.5 -42.5l-68 -215q-98 10 -163.5 43t-104.5 101q-63 -76 -161.5 -112t-197.5 -36 q-84 0 -152.5 25.5t-116.5 70.5t-74.5 107.5t-26.5 138.5zM336 1503q0 55 19.5 104.5t56 86.5t90 58.5t118.5 21.5q68 0 121 -21.5t90 -58.5t56.5 -86t19.5 -105q0 -55 -19.5 -104t-56.5 -86t-90 -59.5t-121 -22.5q-66 0 -119 22.5t-89.5 59.5t-56 86t-19.5 104zM408 330 q0 -61 40 -96t103 -35q53 0 109.5 30.5t84.5 87.5v175h-77q-135 0 -197.5 -41t-62.5 -121zM530 1503q0 -53 24.5 -77.5t65.5 -24.5t67 24.5t26 77.5q0 51 -26 76t-67 25t-65.5 -25t-24.5 -76z" />
<glyph unicode="&#xe6;" d="M-12 311q0 174 101 266.5t312 92.5h84v47q0 104 -47 155.5t-135 51.5q-49 0 -89 -11.5t-101 -40.5l-74 179q80 35 147.5 54t149.5 19q113 0 178.5 -38.5t103.5 -104.5q37 66 101.5 104.5t157.5 38.5q193 0 272.5 -143t79.5 -416q0 -53 -6 -102h-492q14 -145 62.5 -214 t134.5 -69q49 0 91 16.5t87 49.5l123 -164q-59 -51 -137 -84t-183 -33q-115 0 -194.5 45t-132.5 127q-29 -43 -58.5 -75.5t-63.5 -54t-75 -32t-92 -10.5q-72 0 -128 25.5t-96 72t-60.5 110t-20.5 138.5zM260 326q0 -70 23.5 -109t68.5 -39q43 0 77 32t65 93q-4 47 -6.5 95 t-2.5 96h-43q-100 0 -141 -44t-41 -124zM731 639h252q-2 145 -24.5 213t-94.5 68q-63 0 -95 -60.5t-38 -220.5z" />
<glyph unicode="&#xe7;" d="M129 537q0 127 40 234.5t113.5 186t179 122.5t236.5 44q125 0 223.5 -35.5t176.5 -101.5l-142 -196q-55 43 -117.5 62t-119.5 19q-55 0 -100.5 -18t-77 -58t-50 -103.5t-18.5 -155.5q0 -90 19.5 -150.5t52.5 -96.5t78 -51.5t96 -15.5q55 0 114.5 19.5t116.5 62.5 l148 -209q-145 -117 -357 -129v-65q109 -12 161 -65.5t52 -137.5q0 -104 -83 -171t-224 -67q-74 0 -137.5 19.5t-103.5 44.5l77 149q29 -16 62 -25t67 -9q49 0 78 14t29 49q0 41 -47 54.5t-142 13.5l23 209q-205 41 -314.5 188t-109.5 369z" />
<glyph unicode="&#xe8;" d="M92 543q0 121 35 226t102.5 184t166 125t225.5 46q117 0 212 -37.5t162.5 -109.5t104.5 -176.5t37 -235.5q0 -29 -1 -60.5t-6 -55.5h-704q16 -133 86 -189.5t174 -56.5q70 0 136.5 22.5t135.5 75.5l138 -186q-80 -63 -190.5 -106.5t-243.5 -43.5q-141 0 -249 43 t-178.5 120t-106.5 182.5t-36 232.5zM324 1462l143 244l442 -295l-98 -166zM422 645h395q-2 117 -46 188.5t-148 71.5q-86 0 -138.5 -62.5t-62.5 -197.5z" />
<glyph unicode="&#xe9;" d="M92 543q0 121 35 226t102.5 184t166 125t225.5 46q117 0 212 -37.5t162.5 -109.5t104.5 -176.5t37 -235.5q0 -29 -1 -60.5t-6 -55.5h-704q16 -133 86 -189.5t174 -56.5q70 0 136.5 22.5t135.5 75.5l138 -186q-80 -63 -190.5 -106.5t-243.5 -43.5q-141 0 -249 43 t-178.5 120t-106.5 182.5t-36 232.5zM336 1411l440 295l145 -244l-487 -217zM422 645h395q-2 117 -46 188.5t-148 71.5q-86 0 -138.5 -62.5t-62.5 -197.5z" />
<glyph unicode="&#xea;" d="M92 543q0 121 35 226t102.5 184t166 125t225.5 46q117 0 212 -37.5t162.5 -109.5t104.5 -176.5t37 -235.5q0 -29 -1 -60.5t-6 -55.5h-704q16 -133 86 -189.5t174 -56.5q70 0 136.5 22.5t135.5 75.5l138 -186q-80 -63 -190.5 -106.5t-243.5 -43.5q-141 0 -249 43 t-178.5 120t-106.5 182.5t-36 232.5zM235 1384l291 287h201l289 -287l-117 -133l-273 193l-272 -193zM422 645h395q-2 117 -46 188.5t-148 71.5q-86 0 -138.5 -62.5t-62.5 -197.5z" />
<glyph unicode="&#xeb;" d="M92 543q0 121 35 226t102.5 184t166 125t225.5 46q117 0 212 -37.5t162.5 -109.5t104.5 -176.5t37 -235.5q0 -29 -1 -60.5t-6 -55.5h-704q16 -133 86 -189.5t174 -56.5q70 0 136.5 22.5t135.5 75.5l138 -186q-80 -63 -190.5 -106.5t-243.5 -43.5q-141 0 -249 43 t-178.5 120t-106.5 182.5t-36 232.5zM217 1470q0 70 49 117t121 47t121 -47t49 -117q0 -72 -49 -118.5t-121 -46.5t-121 47t-49 118zM422 645h395q-2 117 -46 188.5t-148 71.5q-86 0 -138.5 -62.5t-62.5 -197.5zM692 1470q0 70 50 117t120 47q72 0 121 -47t49 -117 q0 -72 -49 -118.5t-121 -46.5q-70 0 -120 47t-50 118z" />
<glyph unicode="&#xec;" d="M174 0v223h307v641h-297v223h625v-864h276v-223h-911zM312 1462l143 244l442 -295l-98 -166z" />
<glyph unicode="&#xed;" d="M174 0v223h307v641h-297v223h625v-864h276v-223h-911zM326 1411l440 295l145 -244l-487 -217z" />
<glyph unicode="&#xee;" d="M174 0v223h307v641h-297v223h625v-864h276v-223h-911zM225 1384l291 287h201l289 -287l-117 -133l-273 193l-272 -193z" />
<glyph unicode="&#xef;" d="M174 0v223h307v641h-297v223h625v-864h276v-223h-911zM207 1470q0 70 49 117t121 47t121 -47t49 -117q0 -72 -49 -118.5t-121 -46.5t-121 47t-49 118zM682 1470q0 70 50 117t120 47q72 0 121 -47t49 -117q0 -72 -49 -118.5t-121 -46.5q-70 0 -120 47t-50 118z" />
<glyph unicode="&#xf0;" d="M80 479q0 113 36 207t95 160.5t138 103.5t165 37q84 0 151.5 -24.5t114.5 -61.5l6 2q-31 92 -85 163t-126 124l-112 -115l-207 94l117 123q-41 14 -87 25.5t-98 21.5l64 213q170 -25 299 -73l149 155l168 -145l-108 -111q201 -129 291 -331.5t90 -479.5 q0 -127 -35 -236.5t-103.5 -190.5t-169 -128t-231.5 -47q-111 0 -206 35t-165.5 100.5t-110.5 160.5t-40 218zM414 483q0 -150 52 -215t142 -65q104 0 152.5 78.5t48.5 242.5v76q0 37 -2 72q-80 86 -205 86q-86 0 -137 -66.5t-51 -208.5z" />
<glyph unicode="&#xf1;" d="M141 0v1087h287l23 -124q143 162 337 161q145 0 222 -85t77 -240v-799h-327v707q0 98 -21.5 137t-81.5 39q-51 0 -96 -35t-92 -96v-752h-328zM256 1376q18 49 44 92t60 77t75 53.5t90 19.5t82.5 -14.5t58.5 -31t45.5 -30.5t44.5 -14q37 0 59.5 22.5t47.5 65.5l163 -78 q-18 -49 -44.5 -93t-60.5 -78t-75 -53.5t-90 -19.5t-82 14.5t-58.5 32t-46 31.5t-44.5 14q-35 0 -57.5 -22.5t-47.5 -65.5z" />
<glyph unicode="&#xf2;" d="M84 545q0 129 36 236.5t104.5 183t166.5 117.5t223 42t224.5 -41t167 -116.5t103.5 -182t36 -237.5q0 -274 -139.5 -428t-391.5 -154t-391 151.5t-139 428.5zM314 1462l143 244l442 -295l-98 -166zM422 545q0 -180 47 -260t145 -80t145.5 80t47.5 262q0 176 -47.5 256 t-145.5 80t-145 -80t-47 -258z" />
<glyph unicode="&#xf3;" d="M84 545q0 129 36 236.5t104.5 183t166.5 117.5t223 42t224.5 -41t167 -116.5t103.5 -182t36 -237.5q0 -274 -139.5 -428t-391.5 -154t-391 151.5t-139 428.5zM326 1411l440 295l145 -244l-487 -217zM422 545q0 -180 47 -260t145 -80t145.5 80t47.5 262q0 176 -47.5 256 t-145.5 80t-145 -80t-47 -258z" />
<glyph unicode="&#xf4;" d="M84 545q0 129 36 236.5t104.5 183t166.5 117.5t223 42t224.5 -41t167 -116.5t103.5 -182t36 -237.5q0 -274 -139.5 -428t-391.5 -154t-391 151.5t-139 428.5zM225 1384l291 287h201l289 -287l-117 -133l-273 193l-272 -193zM422 545q0 -180 47 -260t145 -80t145.5 80 t47.5 262q0 176 -47.5 256t-145.5 80t-145 -80t-47 -258z" />
<glyph unicode="&#xf5;" d="M84 545q0 129 36 236.5t104.5 183t166.5 117.5t223 42t224.5 -41t167 -116.5t103.5 -182t36 -237.5q0 -274 -139.5 -428t-391.5 -154t-391 151.5t-139 428.5zM231 1376q18 49 44 92t60 77t75 53.5t90 19.5t82.5 -14.5t58.5 -31t45.5 -30.5t44.5 -14q37 0 59.5 22.5 t47.5 65.5l163 -78q-18 -49 -44.5 -93t-60.5 -78t-75 -53.5t-90 -19.5t-82 14.5t-58.5 32t-46 31.5t-44.5 14q-35 0 -57.5 -22.5t-47.5 -65.5zM422 545q0 -180 47 -260t145 -80t145.5 80t47.5 262q0 176 -47.5 256t-145.5 80t-145 -80t-47 -258z" />
<glyph unicode="&#xf6;" d="M84 545q0 129 36 236.5t104.5 183t166.5 117.5t223 42t224.5 -41t167 -116.5t103.5 -182t36 -237.5q0 -274 -139.5 -428t-391.5 -154t-391 151.5t-139 428.5zM207 1470q0 70 49 117t121 47t121 -47t49 -117q0 -72 -49 -118.5t-121 -46.5t-121 47t-49 118zM422 545 q0 -180 47 -260t145 -80t145.5 80t47.5 262q0 176 -47.5 256t-145.5 80t-145 -80t-47 -258zM682 1470q0 70 50 117t120 47q72 0 121 -47t49 -117q0 -72 -49 -118.5t-121 -46.5q-70 0 -120 47t-50 118z" />
<glyph unicode="&#xf7;" d="M168 526v252h893v-252h-893zM428 213q0 39 14.5 72.5t40 59.5t59 40t72.5 14t73 -14t59.5 -40t40 -59.5t14.5 -72.5t-14.5 -73t-40 -59.5t-59.5 -39.5t-73 -14t-72.5 14t-59 39.5t-40 59.5t-14.5 73zM428 1092q0 39 14.5 72.5t40 59t59 40t72.5 14.5t73 -14.5t59.5 -40 t40 -59.5t14.5 -72q0 -37 -14.5 -71t-40 -59.5t-59.5 -40t-73 -14.5t-72.5 14.5t-59 40t-40 59.5t-14.5 71z" />
<glyph unicode="&#xf8;" d="M84 545q0 127 36 233.5t104.5 183t166.5 119.5t223 43q16 0 34 -1t30 -3l78 238l237 -70l-80 -246q113 -72 172.5 -199.5t59.5 -295.5q0 -135 -36 -242.5t-104.5 -183.5t-167 -116t-223.5 -40q-16 0 -31.5 1t-31.5 3l-76 -250l-239 70l81 252q-115 68 -174 196t-59 308z M416 545q0 -182 41 -252l188 588q-10 2 -20 2h-19q-98 0 -144 -80t-46 -258zM590 207q10 -2 16 -2h17q100 0 145 80t45 262q0 164 -39 235z" />
<glyph unicode="&#xf9;" d="M141 303v784h328v-743q0 -78 28.5 -107.5t80.5 -29.5q49 0 98 31.5t84 85.5v763h327v-1087h-286l-15 127q-55 -80 -145 -121t-188 -41q-160 0 -236 91t-76 247zM310 1462l143 244l442 -295l-98 -166z" />
<glyph unicode="&#xfa;" d="M141 303v784h328v-743q0 -78 28.5 -107.5t80.5 -29.5q49 0 98 31.5t84 85.5v763h327v-1087h-286l-15 127q-55 -80 -145 -121t-188 -41q-160 0 -236 91t-76 247zM336 1411l440 295l145 -244l-487 -217z" />
<glyph unicode="&#xfb;" d="M141 303v784h328v-743q0 -78 28.5 -107.5t80.5 -29.5q49 0 98 31.5t84 85.5v763h327v-1087h-286l-15 127q-55 -80 -145 -121t-188 -41q-160 0 -236 91t-76 247zM223 1384l291 287h201l289 -287l-117 -133l-273 193l-272 -193z" />
<glyph unicode="&#xfc;" d="M141 303v784h328v-743q0 -78 28.5 -107.5t80.5 -29.5q49 0 98 31.5t84 85.5v763h327v-1087h-286l-15 127q-55 -80 -145 -121t-188 -41q-160 0 -236 91t-76 247zM207 1470q0 70 49 117t121 47t121 -47t49 -117q0 -72 -49 -118.5t-121 -46.5t-121 47t-49 118zM682 1470 q0 70 50 117t120 47q72 0 121 -47t49 -117q0 -72 -49 -118.5t-121 -46.5q-70 0 -120 47t-50 118z" />
<glyph unicode="&#xfd;" d="M55 1087h346l205 -862h8l224 862h336l-363 -1087q-72 -219 -217 -330.5t-395 -126.5l-37 232q80 10 136 26.5t96 43t67.5 64.5t50.5 91h-113zM342 1411l440 295l145 -244l-487 -217z" />
<glyph unicode="&#xfe;" d="M141 -455v1975l328 34v-575q66 80 137.5 112.5t141.5 32.5q106 0 181 -40t123 -115.5t70.5 -182t22.5 -239.5q0 -127 -27.5 -233.5t-82 -183.5t-132.5 -121t-176 -44q-160 0 -258 113v-498zM469 301q35 -49 70 -72.5t86 -23.5q86 0 134 77.5t48 260.5q0 100 -11.5 166.5 t-33 104.5t-52 53.5t-69.5 15.5q-53 0 -95 -33t-77 -92v-457z" />
<glyph unicode="&#xff;" d="M55 1087h346l205 -862h8l224 862h336l-363 -1087q-72 -219 -217 -330.5t-395 -126.5l-37 232q80 10 136 26.5t96 43t67.5 64.5t50.5 91h-113zM211 1470q0 70 49 117t121 47t121 -47t49 -117q0 -72 -49 -118.5t-121 -46.5t-121 47t-49 118zM686 1470q0 70 50 117t120 47 q72 0 121 -47t49 -117q0 -72 -49 -118.5t-121 -46.5q-70 0 -120 47t-50 118z" />
<glyph unicode="&#x152;" d="M20 711q0 174 25 312t78 234.5t137 147.5t201 51q57 0 101 -10t95 -27h564l-35 -229h-369q66 -131 78 -356h248v-230h-246q-6 -119 -29.5 -212t-60.5 -163h414v-229h-572q-45 -14 -88 -24.5t-100 -10.5q-117 0 -201 49t-137 144.5t-78 234.5t-25 318zM309 711 q0 -139 8.5 -237.5t26.5 -160t47 -90t72 -28.5t73.5 28.5t49 90t27 160t8.5 237.5q0 143 -7.5 241.5t-26 158.5t-49 87t-75.5 27t-75 -28t-47 -89t-24.5 -159.5t-7.5 -237.5z" />
<glyph unicode="&#x153;" d="M-16 545q0 129 21.5 236.5t67.5 183t117.5 117.5t169.5 42q104 0 166 -45t99 -125q41 76 105.5 123t166.5 47q188 0 266 -144t78 -415q0 -53 -6 -102h-479q12 -147 58 -215t132 -68q47 0 87 16.5t85 49.5l123 -164q-59 -51 -135 -84t-176 -33q-109 0 -185.5 42 t-126.5 120q-37 -76 -97 -119t-161 -43q-195 0 -285.5 152.5t-90.5 427.5zM254 545q0 -96 6 -161t20.5 -104.5t37 -57t55.5 -17.5t55.5 16.5t36.5 56t20.5 105.5t6.5 164q0 184 -28 260t-91 76q-66 0 -92.5 -76t-26.5 -262zM754 639h241q-2 145 -23 213t-87 68 q-59 0 -91 -60.5t-40 -220.5z" />
<glyph unicode="&#x178;" d="M-18 1419h372l262 -598h9l264 598h358l-463 -887v-532h-340v530zM209 1716q0 68 49 116t121 48t121 -48t49 -116q0 -72 -49 -120t-121 -48t-121 48.5t-49 119.5zM684 1716q0 68 49 116t121 48t121 -48t49 -116q0 -72 -49 -120t-121 -48t-121 48.5t-49 119.5z" />
<glyph unicode="&#x2c6;" d="M225 1436l289 268h201l289 -268l-117 -133l-273 174l-272 -174z" />
<glyph unicode="&#x2dc;" d="M229 1434q37 98 104.5 169.5t166.5 71.5q49 0 81.5 -13t58.5 -30.5t46.5 -31t44.5 -13.5q35 0 57.5 21.5t47.5 64.5l163 -78q-18 -49 -44.5 -92t-60.5 -75.5t-75 -52t-90 -19.5t-82 13t-57.5 29.5t-45 30t-44.5 13.5q-37 0 -59.5 -21.5t-47.5 -64.5z" />
<glyph unicode="&#x2000;" horiz-adv-x="1026" />
<glyph unicode="&#x2001;" horiz-adv-x="2052" />
<glyph unicode="&#x2002;" horiz-adv-x="1026" />
<glyph unicode="&#x2003;" horiz-adv-x="2052" />
<glyph unicode="&#x2004;" horiz-adv-x="684" />
<glyph unicode="&#x2005;" horiz-adv-x="513" />
<glyph unicode="&#x2006;" horiz-adv-x="342" />
<glyph unicode="&#x2007;" horiz-adv-x="342" />
<glyph unicode="&#x2008;" horiz-adv-x="256" />
<glyph unicode="&#x2009;" horiz-adv-x="410" />
<glyph unicode="&#x200a;" horiz-adv-x="114" />
<glyph unicode="&#x2010;" d="M221 514v254h787v-254h-787z" />
<glyph unicode="&#x2011;" d="M221 514v254h787v-254h-787z" />
<glyph unicode="&#x2012;" d="M221 514v254h787v-254h-787z" />
<glyph unicode="&#x2013;" d="M55 514v254h1119v-254h-1119z" />
<glyph unicode="&#x2014;" d="M0 514v254h1229v-254h-1229z" />
<glyph unicode="&#x2018;" d="M416 1098q0 45 14 93t51 122l146 303h184l-88 -363q37 -27 58.5 -64.5t21.5 -90.5q0 -39 -15.5 -73t-41 -59.5t-61.5 -40t-77 -14.5t-76.5 14.5t-61.5 40t-40 59.5t-14 73z" />
<glyph unicode="&#x2019;" d="M416 911l88 363q-37 27 -58.5 65t-21.5 91q0 39 14.5 72.5t41 59t62.5 40t76 14.5q41 0 77 -14.5t61.5 -40t40 -59.5t14.5 -72q0 -45 -14.5 -93.5t-51.5 -122.5l-145 -303h-184z" />
<glyph unicode="&#x201a;" d="M416 -373l90 363q-37 27 -58.5 64.5t-21.5 90.5q0 39 14.5 73t41 59.5t62.5 40t77 14.5t76.5 -14.5t61 -40t40 -59.5t14.5 -73q0 -47 -15.5 -94t-49.5 -121l-148 -303h-184z" />
<glyph unicode="&#x201c;" d="M178 1098q0 45 14.5 93t49.5 122l145 303h184l-88 -363q37 -27 58.5 -64.5t21.5 -90.5q0 -39 -15.5 -73t-41 -59.5t-61 -40t-76.5 -14.5q-84 0 -137.5 54.5t-53.5 132.5zM655 1098q0 45 14.5 93t51.5 122l145 303h185l-90 -363q37 -27 59 -64.5t22 -90.5q0 -39 -15 -73 t-40.5 -59.5t-61.5 -40t-77 -14.5t-77 14.5t-61.5 40t-40 59.5t-14.5 73z" />
<glyph unicode="&#x201d;" d="M178 930l88 362q-37 27 -58.5 65t-21.5 91q0 39 15.5 72.5t41 58.5t61.5 39t77 14q84 0 138 -53t54 -131q0 -47 -15 -94t-50 -123l-146 -301h-184zM655 930l90 362q-37 27 -59 65t-22 91q0 39 15 72.5t40.5 58.5t61.5 39t77 14q84 0 138.5 -53t54.5 -131q0 -47 -14.5 -94 t-51.5 -123l-145 -301h-185z" />
<glyph unicode="&#x201e;" d="M178 -373l90 363q-37 27 -59.5 64.5t-22.5 90.5q0 39 15.5 73t41 59.5t61.5 40t77 14.5t77 -14.5t61.5 -40t39.5 -59.5t14 -73q0 -47 -14 -94t-51 -121l-146 -303h-184zM655 -373l90 363q-37 27 -59 64.5t-22 90.5q0 39 15 73t40.5 59.5t61.5 40t77 14.5t77 -14.5 t61.5 -40t40 -59.5t14.5 -73q0 -47 -14.5 -94t-51.5 -121l-145 -303h-185z" />
<glyph unicode="&#x2022;" d="M322 700q0 63 22.5 116.5t61 92.5t92 60.5t116.5 21.5t116.5 -22.5t92.5 -61.5t61.5 -92t22.5 -117q0 -63 -22.5 -116.5t-61.5 -92t-92.5 -60t-116.5 -21.5t-116.5 22.5t-92 61t-61 93t-22.5 115.5z" />
<glyph unicode="&#x2026;" d="M29 135q0 37 14 69t37.5 55.5t55.5 37.5t69 14t68.5 -14t55 -37.5t38 -55.5t14.5 -69t-14.5 -68.5t-38 -55t-55 -38t-68.5 -14.5t-69 14.5t-55.5 38t-37.5 55t-14 68.5zM438 135q0 37 14.5 69t38 55.5t55.5 37.5t68 14q37 0 69 -14t55.5 -37.5t38 -55.5t14.5 -69 t-14.5 -68.5t-38 -55t-55.5 -38t-69 -14.5t-68.5 14.5t-55 38t-38 55t-14.5 68.5zM848 135q0 37 14.5 69t38 55.5t55 37.5t68.5 14t68.5 -14t55 -37.5t38 -55.5t14.5 -69t-14.5 -68.5t-38 -55t-55 -38t-68.5 -14.5t-68.5 14.5t-55 38t-38 55t-14.5 68.5z" />
<glyph unicode="&#x202f;" horiz-adv-x="410" />
<glyph unicode="&#x2039;" d="M319 483v207l388 451l202 -133l-262 -420l262 -422l-202 -133z" />
<glyph unicode="&#x203a;" d="M319 166l261 422l-261 420l201 133l389 -451v-207l-389 -450z" />
<glyph unicode="&#x205f;" horiz-adv-x="513" />
<glyph unicode="&#x20ac;" d="M66 469l43 172h124v143h-165l43 170h147q51 236 200.5 369t379.5 133q125 0 202.5 -29.5t147.5 -76.5l-121 -203q-57 39 -102 54.5t-111 15.5q-102 0 -171 -60.5t-97 -202.5h420l-43 -170h-400v-143h369l-45 -172h-307q23 -139 86 -200.5t178 -61.5q84 0 154.5 26.5 t131.5 67.5v-260q-78 -37 -152.5 -56.5t-158.5 -19.5q-238 0 -379 130t-186 374h-188z" />
<glyph unicode="&#x2122;" d="M-29 1247v178h789l84 -473h10l82 473h254l27 -821h-201l-4 270v68q0 66 4 122t14 122h-8l-88 -436h-168l-90 436h-8q10 -61 14 -117.5t4 -124.5v-70l-4 -270h-203l23 643h-144v-643h-223v643h-164z" />
<glyph unicode="&#x25fc;" horiz-adv-x="1085" d="M0 0v1085h1085v-1085h-1085z" />
<glyph unicode="&#xfb01;" />
<glyph unicode="&#xfb02;" />
</font>
</defs>
</svg>
